<?xml version="1.0" standalone="no"?>
<!DOCTYPE svg PUBLIC "-//W3C//DTD SVG 20010904//EN"
 "http://www.w3.org/TR/2001/REC-SVG-20010904/DTD/svg10.dtd">
<svg version="1.0" xmlns="http://www.w3.org/2000/svg"
 width="600.000000pt" height="691.000000pt" viewBox="0 0 600.000000 691.000000"
 preserveAspectRatio="xMidYMid meet">

<g transform="translate(0.000000,691.000000) scale(0.100000,-0.100000)"
fill="#000000" stroke="none">
<path d="M2100 6639 c-391 -106 -680 -209 -913 -325 -197 -98 -309 -178 -367
-264 -192 -283 -340 -887 -416 -1703 -18 -194 -15 -233 19 -265 78 -74 517
-217 787 -258 63 -9 118 -20 122 -23 4 -4 9 -389 10 -856 1 -468 5 -1040 8
-1271 6 -486 -4 -444 114 -493 172 -71 394 -126 666 -165 318 -46 411 -51 880
-51 466 1 588 8 895 56 320 49 677 156 728 217 12 15 24 979 26 2132 l1 435
138 23 c241 39 599 148 730 223 85 48 87 59 62 312 -32 331 -81 675 -124 871
-100 456 -202 723 -328 861 -145 159 -543 344 -1068 496 -195 57 -248 59 -475
20 -571 -97 -610 -97 -1255 9 -204 33 -191 32 -240 19z m6 -301 c108 -175 337
-311 622 -370 152 -31 392 -31 544 0 281 58 491 180 610 355 21 31 45 57 53
57 26 0 320 -92 470 -147 271 -100 466 -203 558 -295 80 -81 149 -248 222
-535 66 -263 154 -813 171 -1072 l7 -98 -79 -31 c-190 -73 -405 -128 -602
-156 -12 -2 -25 0 -27 4 -3 5 -1 181 4 392 9 339 12 393 31 466 29 111 70 209
117 277 67 98 83 129 83 165 0 60 -53 110 -118 110 -63 0 -146 -95 -223 -255
-71 -148 -100 -255 -110 -410 -4 -71 -11 -867 -15 -1768 -7 -1480 -9 -1639
-23 -1646 -32 -16 -228 -70 -346 -95 -326 -68 -643 -90 -1175 -83 -558 8 -815
39 -1176 144 l-121 35 -6 1021 c-4 561 -7 1248 -7 1526 -1 278 -5 616 -10 751
-8 237 -9 248 -40 345 -55 169 -123 299 -197 377 -69 71 -137 75 -193 11 -27
-31 -31 -41 -26 -72 3 -20 24 -61 46 -91 80 -110 131 -230 167 -395 11 -52 16
-164 20 -437 l5 -368 -30 0 c-91 0 -349 63 -547 134 l-120 42 1 105 c2 119 30
353 79 644 76 457 173 784 271 918 63 87 215 182 449 282 135 58 570 204 607
205 22 0 33 -9 54 -42z m524 -5 c249 -38 471 -38 735 0 105 16 201 31 215 34
22 6 23 4 12 -10 -40 -48 -229 -128 -372 -157 -147 -30 -359 -25 -505 14 -100
26 -291 113 -317 143 -12 14 -9 15 22 10 19 -4 114 -19 210 -34z"/>
<path d="M4053 1817 c-53 -32 -53 -32 -53 -82 l0 -50 75 -48 c41 -26 75 -52
75 -57 0 -5 -8 -14 -18 -19 -14 -7 -31 -1 -72 24 l-55 34 -3 -42 c-4 -45 -4
-45 78 -94 l36 -22 57 37 c55 36 57 38 57 83 l0 46 -81 54 c-73 48 -79 54 -63
66 25 18 33 17 84 -17 25 -16 48 -30 53 -30 4 0 7 18 7 40 0 36 -4 42 -52 75
-29 19 -57 35 -63 35 -5 -1 -34 -15 -62 -33z"/>
</g>
</svg>
